<?xml version="1.0" encoding="UTF-8"?>
<svg version="1.1" xmlns="http://www.w3.org/2000/svg" width="741" height="157">
<path d="M0 0 C2.0785612 1.60415071 4.0393004 3.25126793 6 5 C5.52792355 9.31026324 2.7441397 11.77151015 -0.125 14.75 C-1.12441401 15.81182646 -2.12311065 16.87432856 -3.12109375 17.9375 C-3.61077637 18.45570312 -4.10045898 18.97390625 -4.60498047 19.5078125 C-7.49042296 22.5942361 -10.2421902 25.79981116 -13 29 C-16.72064918 27.6697856 -19.54436903 26.00442807 -22.6875 23.625 C-33.57666992 15.81214266 -44.86772355 13.87176507 -58 15 C-68.94038865 17.08507981 -77.36006246 22.79026297 -83.71875 31.88671875 C-90.48697028 43.05015525 -91.75967689 55.69279332 -89.3515625 68.4296875 C-86.26129125 78.59852878 -80.7990193 86.75778763 -71.796875 92.52734375 C-60.16751672 98.65062318 -48.18272044 99.84218376 -35.65625 95.97265625 C-27.39112309 92.94616125 -20.72832326 88.63944003 -14 83 C-10.74792908 84.41738489 -8.68638933 86.12526412 -6.25 88.6875 C-2.87395776 92.17755492 0.65496872 95.31281235 4.43359375 98.359375 C6.26680163 100.2794431 6.86548828 101.34598032 7 104 C-0.80114357 116.08191549 -18.27755916 123.21259403 -31.59228516 126.40234375 C-37.21501493 127.38847661 -42.79285377 127.44529931 -48.49072266 127.39111328 C-50.49841196 127.37501274 -52.50408948 127.39106395 -54.51171875 127.41015625 C-65.90078641 127.37642752 -75.99257661 125.60592837 -86.125 120.3125 C-86.80312744 119.96364746 -87.48125488 119.61479492 -88.17993164 119.25537109 C-100.71892036 112.60593 -110.61714962 102.97953896 -117.375 90.5 C-117.69678223 89.90759521 -118.01856445 89.31519043 -118.35009766 88.70483398 C-123.3666007 78.93313173 -124.51072489 69.6572542 -124.44604492 58.80566406 C-124.43753958 56.63509954 -124.46637612 54.46718094 -124.49804688 52.296875 C-124.59017165 34.22186628 -117.56917828 18.5485742 -104.8828125 5.72265625 C-76.48682507 -21.09577633 -31.34106053 -22.15575777 0 0 Z " fill="#000000" transform="translate(124,30)"/>
<path d="M0 0 C8.90378491 8.47254747 16.07937127 20.98156521 16.42578125 33.55859375 C16.80593839 51.05609655 13.27938182 65.18843556 1.15625 78.375 C-13.77796899 92.5980657 -30.54576184 94.85889623 -50.265625 94.55859375 C-57.4240656 94.31533597 -63.30509559 93.41423716 -69.8125 90.25 C-70.81667969 89.775625 -71.82085937 89.30125 -72.85546875 88.8125 C-87.11738125 81.29291116 -96.40915752 69.64713976 -101.26953125 54.41796875 C-104.96697784 39.65478272 -102.6790424 25.47236438 -95.6015625 12.13671875 C-87.50703149 -0.92410748 -74.46510722 -9.98307105 -59.6875 -14 C-38.11565075 -18.17519663 -16.9761103 -14.61640806 0 0 Z M-64.8125 20.25 C-70.64315273 28.58363765 -71.64130832 36.18589892 -70.8125 46.25 C-68.95321622 53.61993208 -64.11919256 60.46473715 -57.72265625 64.6015625 C-50.3662925 68.40988489 -43.10795875 69.45417281 -34.9609375 67.6015625 C-27.55713665 65.21521347 -22.34336123 61.83186497 -18.53515625 54.9375 C-14.40515021 46.00140152 -13.66632279 38.12691332 -16.77734375 28.70703125 C-19.85240666 21.40810834 -24.7291806 16.66714822 -31.8125 13.25 C-43.53324502 8.77480645 -55.93644075 11.27725165 -64.8125 20.25 Z " fill="#000000" transform="translate(339.8125,62.75)"/>
<path d="M0 0 C18.29351408 -0.79687656 34.44599594 6.23714135 47.75 18.41015625 C57.72250876 28.93402967 62.45484973 43.17749205 62.2109375 57.51953125 C60.96839776 73.07428798 55.01733477 86.19656695 43.58886719 96.81445312 C38.86979065 100.81131082 33.58014387 103.56357924 28 106.16015625 C27.05382812 106.61390625 26.10765625 107.06765625 25.1328125 107.53515625 C11.6014936 112.81567094 -7.90728748 112.60709317 -21.40234375 107.33984375 C-22.25957031 106.95054687 -23.11679687 106.56125 -24 106.16015625 C-25.27037109 105.66902344 -25.27037109 105.66902344 -26.56640625 105.16796875 C-39.18429086 99.75748302 -48.84451669 88.63108908 -54.2734375 76.2578125 C-59.41291794 62.38850536 -59.26084035 47.21876795 -53.24609375 33.625 C-45.35952937 18.02493066 -34.40696749 9.2462025 -18.19921875 3.09765625 C-12.16562859 1.14588836 -6.28280453 0.50311521 0 0 Z M-19.56640625 36.2265625 C-25.02748117 43.5923175 -26.90355523 51.07369944 -26 60.16015625 C-24.05310562 68.28148711 -20.80246235 74.95294661 -13.75390625 79.66015625 C-6.51973589 83.84148296 -0.35924087 84.96733162 8 84.16015625 C16.64109223 81.80460427 22.41485674 77.90422299 26.9296875 70.15234375 C30.74406622 63.05258773 31.26349657 55.22132151 29.3125 47.40625 C26.10408064 38.64993883 21.3351919 33.44301231 13.1484375 29.10546875 C2.02328057 24.2103997 -11.50217308 27.23407227 -19.56640625 36.2265625 Z " fill="#000000" transform="translate(565,46.83984375)"/>
<path d="M0 0 C9.26921255 9.24927876 11.12124529 21.7475054 11.16475391 34.30205917 C11.15608262 36.66508175 11.1330283 39.02770897 11.109375 41.390625 C11.10376645 43.05498875 11.09950232 44.71935752 11.09651184 46.38372803 C11.08516197 50.72383765 11.05578212 55.06363689 11.0223999 59.40362549 C10.98603021 64.63257943 10.97249082 69.86163826 10.95503998 75.09068298 C10.92613689 82.99816993 10.86858198 90.90497842 10.81640625 98.8125 C0.25640625 98.8125 -10.30359375 98.8125 -21.18359375 98.8125 C-21.23966797 92.14740234 -21.23966797 92.14740234 -21.296875 85.34765625 C-21.33503349 81.7844994 -21.37610586 78.22140238 -21.41913605 74.65830231 C-21.46363088 70.90820897 -21.50309926 67.15822308 -21.5300293 63.40795898 C-21.55621142 59.78970575 -21.59671619 56.1718604 -21.64678001 52.55386162 C-21.66334876 51.17976427 -21.67492483 49.80559653 -21.68120766 48.43141365 C-21.72656473 39.41539454 -21.99790307 31.49148319 -27.18359375 23.875 C-32.18201135 20.4385879 -37.69860948 19.29243312 -43.72265625 20.19140625 C-48.65689278 21.63537179 -51.99961569 23.6636801 -55.18359375 27.8125 C-56.92498443 32.1346126 -57.4482465 35.81775239 -57.50244141 40.46044922 C-57.5223111 41.76134491 -57.54218079 43.0622406 -57.56265259 44.40255737 C-57.57452635 45.80743236 -57.58618936 47.21230914 -57.59765625 48.6171875 C-57.616383 50.06593918 -57.63595753 51.51468012 -57.65634155 52.96340942 C-57.70750978 56.76088105 -57.74721695 60.55838798 -57.78448486 64.35601807 C-57.83168811 68.9208711 -57.89321988 73.48555107 -57.95233154 78.05026245 C-58.04035709 84.97093785 -58.11025442 91.89158322 -58.18359375 98.8125 C-68.74359375 98.8125 -79.30359375 98.8125 -90.18359375 98.8125 C-90.18359375 63.8325 -90.18359375 28.8525 -90.18359375 -7.1875 C-79.62359375 -7.1875 -69.06359375 -7.1875 -58.18359375 -7.1875 C-57.68859375 -1.2475 -57.68859375 -1.2475 -57.18359375 4.8125 C-55.86359375 3.575 -54.54359375 2.3375 -53.18359375 1.0625 C-38.12981015 -12.22992047 -15.82803164 -12.7903286 0 0 Z " fill="#000000" transform="translate(472.18359375,56.1875)"/>
<path d="M0 0 C31.02 0 62.04 0 94 0 C94 23 94 23 87 31.9375 C82.84375 35.74609375 82.84375 35.74609375 80.8203125 37.45654297 C78.58485907 39.3520012 76.54096959 41.39828727 74.5 43.5 C73.89929688 44.09039062 73.29859375 44.68078125 72.6796875 45.2890625 C70.91220338 47.08943005 69.26739543 48.96013344 67.625 50.875 C64.09643401 54.98360423 60.26894022 58.7464176 56.41796875 62.55078125 C53.76526243 65.23777134 51.28664209 68.02430608 48.86328125 70.91796875 C46.04234996 74.07007856 42.99110762 77.00889238 40 80 C57.82 80.33 75.64 80.66 94 81 C94 89.25 94 97.5 94 106 C62.32 106 30.64 106 -2 106 C-2 84 -2 84 3.5625 77.125 C5.68498513 75.38774344 7.82893464 73.67614996 10 72 C11.27181405 70.64291106 12.50868107 69.25110604 13.6875 67.8125 C16.86852855 64.07421097 20.3197355 60.66431498 23.8125 57.21875 C25.79720342 55.20569368 27.66096916 53.14553597 29.5 51 C32.74564737 47.2134114 36.24395347 43.73892835 39.79296875 40.23828125 C42.45631958 37.53721926 44.94018915 34.71488834 47.39453125 31.82421875 C49.17468846 29.80150971 51.09470323 27.90529677 53 26 C35.51 25.67 18.02 25.34 0 25 C0 16.75 0 8.5 0 0 Z " fill="#000000" transform="translate(646,49)"/>
<path d="M0 0 C0 10.89 0 21.78 0 33 C-7.425 33.99 -7.425 33.99 -15 35 C-23.72053214 39.16647647 -28.49700074 43.41935279 -31.75 52.5 C-34.03952356 59.63479435 -34.18247532 66.88525298 -34.31640625 74.30859375 C-34.33718735 75.27531509 -34.35796844 76.24203644 -34.37937927 77.23805237 C-34.44438991 80.30446758 -34.50353277 83.37096322 -34.5625 86.4375 C-34.6057314 88.5253987 -34.64934712 90.61328949 -34.69335938 92.70117188 C-34.80073919 97.80070029 -34.90017239 102.90029585 -35 108 C-45.56 108 -56.12 108 -67 108 C-67 73.02 -67 38.04 -67 2 C-56.44 2 -45.88 2 -35 2 C-34.505 10.415 -34.505 10.415 -34 19 C-32.88625 17.30875 -31.7725 15.6175 -30.625 13.875 C-25.05246048 6.23855695 -18.57118083 2.06264164 -9.30078125 0.2265625 C-6.21452833 -0.07734696 -3.10118011 0 0 0 Z " fill="#000000" transform="translate(223,47)"/>
<path d="M0 0 C4.61581142 2.18643699 6.72864085 4.49599804 9 9 C9.82885269 14.54808604 9.7240695 19.47140883 7.3125 24.5625 C4.21064779 27.8320199 1.61649202 29.75850523 -2.90234375 30.43359375 C-9.05071801 30.44150672 -13.31314296 30.4465054 -18 26 C-21.88937897 20.55860924 -21.79042609 15.48149391 -21 9 C-16.63929544 -0.20593186 -9.3488659 -1.1401056 0 0 Z " fill="#000000" transform="translate(730,0)"/>
<path d="M0 0 C4.61581142 2.18643699 6.72864085 4.49599804 9 9 C9.82885269 14.54808604 9.7240695 19.47140883 7.3125 24.5625 C4.21064779 27.8320199 1.61649202 29.75850523 -2.90234375 30.43359375 C-9.05071801 30.44150672 -13.31314296 30.4465054 -18 26 C-21.88937897 20.55860924 -21.79042609 15.48149391 -21 9 C-16.63929544 -0.20593186 -9.3488659 -1.1401056 0 0 Z " fill="#000000" transform="translate(675,0)"/>
</svg>
